<svg xmlns="http://www.w3.org/2000/svg" width="974" height="350" viewBox="0 0 974 350" version="1.1"><path d="M 276.400 138.500 C 276.401 146.750, 276.556 149.992, 276.744 145.704 C 276.932 141.417, 276.931 134.667, 276.742 130.704 C 276.552 126.742, 276.399 130.250, 276.400 138.500 M 456.378 143 C 456.378 149.325, 456.541 151.912, 456.739 148.750 C 456.937 145.588, 456.937 140.412, 456.739 137.250 C 456.541 134.088, 456.378 136.675, 456.378 143 M 400.750 142.723 C 402.538 142.945, 405.462 142.945, 407.250 142.723 C 409.038 142.502, 407.575 142.320, 404 142.320 C 400.425 142.320, 398.962 142.502, 400.750 142.723 M 516.750 142.723 C 518.538 142.945, 521.462 142.945, 523.250 142.723 C 525.038 142.502, 523.575 142.320, 520 142.320 C 516.425 142.320, 514.962 142.502, 516.750 142.723 M 798.419 162 C 798.419 172.725, 798.566 177.113, 798.746 171.750 C 798.925 166.387, 798.925 157.613, 798.746 152.250 C 798.566 146.887, 798.419 151.275, 798.419 162 M 598.241 148.929 C 601.445 149.376, 604.052 150.548, 606.285 152.545 C 608.560 154.580, 608.419 154.333, 605.833 151.750 C 602.586 148.508, 601.497 148.018, 597.789 148.134 L 593.500 148.267 598.241 148.929 M 588.809 151.750 C 585.969 154.795, 583.593 158.926, 584.284 159.618 C 584.530 159.863, 585.300 158.691, 585.995 157.012 C 586.690 155.333, 588.586 152.844, 590.206 151.480 C 591.827 150.116, 592.753 149, 592.264 149 C 591.775 149, 590.220 150.238, 588.809 151.750 M 408.437 182 C 408.437 196.575, 408.577 202.537, 408.747 195.250 C 408.918 187.963, 408.918 176.037, 408.747 168.750 C 408.577 161.463, 408.437 167.425, 408.437 182 M 610.463 158.750 C 610.835 159.713, 611.390 161.738, 611.695 163.250 C 612 164.762, 612.616 166, 613.064 166 C 613.512 166, 613.189 163.975, 612.345 161.500 C 611.502 159.025, 610.581 157, 610.299 157 C 610.017 157, 610.091 157.787, 610.463 158.750 M 536.435 183 C 536.435 197.025, 536.575 202.763, 536.747 195.750 C 536.919 188.738, 536.919 177.263, 536.747 170.250 C 536.575 163.238, 536.435 168.975, 536.435 183 M 460.750 164.732 C 463.087 164.943, 466.913 164.943, 469.250 164.732 C 471.587 164.522, 469.675 164.349, 465 164.349 C 460.325 164.349, 458.413 164.522, 460.750 164.732 M 348.407 181 C 348.407 190.075, 348.559 193.787, 348.744 189.250 C 348.929 184.713, 348.929 177.287, 348.744 172.750 C 348.559 168.213, 348.407 171.925, 348.407 181 M 376.425 187 C 376.425 198.825, 376.569 203.662, 376.746 197.750 C 376.923 191.838, 376.923 182.162, 376.746 176.250 C 376.569 170.338, 376.425 175.175, 376.425 187 M 581.300 175 C 581.300 178.025, 581.487 179.262, 581.716 177.750 C 581.945 176.238, 581.945 173.762, 581.716 172.250 C 581.487 170.738, 581.300 171.975, 581.300 175 M 276.355 180.500 C 276.352 185.450, 276.521 187.601, 276.731 185.280 C 276.940 182.959, 276.943 178.909, 276.736 176.280 C 276.530 173.651, 276.358 175.550, 276.355 180.500 M 456.400 187.500 C 456.401 195.750, 456.556 198.992, 456.744 194.704 C 456.932 190.417, 456.931 183.667, 456.742 179.704 C 456.552 175.742, 456.399 179.250, 456.400 187.500 M 798.370 192 C 798.370 197.775, 798.535 200.137, 798.737 197.250 C 798.939 194.363, 798.939 189.637, 798.737 186.750 C 798.535 183.863, 798.370 186.225, 798.370 192 M 582.245 187.250 C 583.730 193.370, 584.859 194.006, 583.636 188.034 C 583.069 185.265, 582.292 183, 581.909 183 C 581.526 183, 581.677 184.912, 582.245 187.250 M 588 199.303 C 588 200.639, 595.031 203.988, 597.618 203.885 C 600.318 203.777, 600.279 203.726, 597 203.078 C 595.075 202.698, 592.263 201.573, 590.750 200.578 C 589.237 199.584, 588 199.010, 588 199.303 M 589.292 234.742 C 593.027 234.935, 598.877 234.934, 602.292 234.739 C 605.706 234.545, 602.650 234.387, 595.500 234.389 C 588.350 234.390, 585.556 234.550, 589.292 234.742 M 618.768 234.725 C 620.565 234.947, 623.265 234.943, 624.768 234.715 C 626.271 234.486, 624.800 234.304, 621.500 234.310 C 618.200 234.315, 616.971 234.502, 618.768 234.725 M 632.250 234.735 C 634.862 234.941, 639.138 234.941, 641.750 234.735 C 644.362 234.529, 642.225 234.360, 637 234.360 C 631.775 234.360, 629.638 234.529, 632.250 234.735 M 340.750 235.737 C 343.637 235.939, 348.363 235.939, 351.250 235.737 C 354.137 235.535, 351.775 235.370, 346 235.370 C 340.225 235.370, 337.863 235.535, 340.750 235.737 M 869.750 235.743 C 873.737 235.932, 880.263 235.932, 884.250 235.743 C 888.237 235.553, 884.975 235.397, 877 235.397 C 869.025 235.397, 865.763 235.553, 869.750 235.743 M 375.750 237.743 C 379.738 237.932, 386.262 237.932, 390.250 237.743 C 394.238 237.553, 390.975 237.397, 383 237.397 C 375.025 237.397, 371.762 237.553, 375.750 237.743 M 836.302 237.746 C 841.693 237.926, 850.243 237.925, 855.302 237.744 C 860.361 237.563, 855.950 237.416, 845.500 237.417 C 835.050 237.418, 830.911 237.566, 836.302 237.746 M 712.993 272.795 L 713.486 282.500 713.784 273.591 C 713.948 268.691, 713.726 264.324, 713.291 263.887 C 712.856 263.449, 712.722 267.458, 712.993 272.795 M 433.365 273.500 C 433.368 279, 433.536 281.122, 433.738 278.216 C 433.941 275.311, 433.939 270.811, 433.734 268.216 C 433.528 265.622, 433.363 268, 433.365 273.500 M 627.355 272.500 C 627.352 277.450, 627.521 279.601, 627.731 277.280 C 627.940 274.959, 627.943 270.909, 627.736 268.280 C 627.530 265.651, 627.358 267.550, 627.355 272.500 M 922.360 274 C 922.360 279.225, 922.529 281.363, 922.735 278.750 C 922.941 276.137, 922.941 271.863, 922.735 269.250 C 922.529 266.637, 922.360 268.775, 922.360 274" stroke="none" fill="#a4872e" fill-rule="evenodd"/><path d="M 432.704 4.629 C 432.358 4.975, 428.485 5.395, 424.097 5.564 C 414.693 5.924, 394.227 9.249, 381.411 12.498 C 357.995 18.436, 331.894 35.076, 316.815 53.678 C 309.401 62.825, 306.453 67.883, 312.549 61 C 323.134 49.046, 335.838 38.469, 347.383 31.998 C 355.534 27.430, 354.101 29.606, 344.076 37.020 C 332.253 45.763, 318.291 59.577, 309.309 71.418 L 301.661 81.500 317.580 65.953 C 333.113 50.784, 349 37.016, 349 38.723 C 349 39.192, 346.714 41.808, 343.921 44.538 C 341.127 47.267, 335.883 53.325, 332.268 58 C 328.653 62.675, 323.653 68.627, 321.158 71.227 C 318.662 73.827, 316.829 76.162, 317.083 76.416 C 317.942 77.276, 329.350 72.091, 334.685 68.417 C 337.599 66.410, 345.274 59.838, 351.741 53.812 C 366.524 40.037, 375 32.616, 375 33.446 C 375 33.800, 368.522 41.157, 360.604 49.795 C 352.686 58.433, 346.344 65.646, 346.511 65.824 C 347.698 67.091, 355.840 60.417, 370 46.568 C 387.175 29.771, 398.233 21.399, 412.947 14.054 C 421.287 9.890, 434.572 5.298, 440 4.704 C 442.689 4.409, 442.323 4.283, 438.417 4.160 C 435.621 4.072, 433.050 4.283, 432.704 4.629 M 434.500 8.902 C 419.719 12.966, 405.743 20.170, 391.010 31.319 C 380.923 38.952, 360.232 58.565, 361.222 59.555 C 361.547 59.880, 366.692 58.514, 372.656 56.519 C 382.727 53.151, 388.227 50.526, 406.500 40.362 C 423.490 30.912, 439.695 24.869, 454.477 22.471 C 464.971 20.769, 478.431 20.494, 477.500 22 C 477.160 22.550, 474.392 23, 471.348 23 C 457.865 23, 435.884 29.439, 417.696 38.715 C 406.403 44.476, 404.516 46.317, 412.685 43.605 C 422.943 40.200, 439.979 36.941, 450.500 36.372 C 474.296 35.085, 510.983 43.208, 543.530 56.971 C 549.844 59.641, 554.801 61.486, 554.544 61.072 C 553.915 60.054, 538.428 50.620, 533.750 48.405 C 531.688 47.429, 530 46.291, 530 45.878 C 530 44.658, 542.334 50.598, 559.806 60.231 C 568.774 65.176, 576.332 69.001, 576.601 68.732 C 577.367 67.966, 567.497 60.451, 558.874 55.233 C 554.572 52.630, 551.040 50.187, 551.026 49.805 C 551.012 49.423, 553.362 50.149, 556.250 51.420 C 568.583 56.845, 565.243 54.484, 548.500 45.942 C 480.881 11.443, 472.854 8.222, 452.500 7.414 C 443.733 7.066, 440.079 7.369, 434.500 8.902 M 347.244 19.008 C 324.910 26.740, 305.225 41.938, 293.505 60.500 C 289.049 67.558, 283.773 77, 284.285 77 C 284.523 77, 286.329 74.572, 288.299 71.605 C 294.476 62.302, 306.994 48.091, 313.996 42.434 C 317.695 39.445, 321.057 37, 321.468 37 C 321.879 37, 319.802 39.607, 316.852 42.793 C 307.289 53.122, 297.207 67.584, 291.115 79.710 C 287.625 86.657, 288.686 85.817, 294.633 76.923 C 311.485 51.722, 328.061 34.974, 349.403 21.585 C 354.299 18.513, 357.674 16.034, 356.903 16.075 C 356.131 16.117, 351.785 17.437, 347.244 19.008 M 311.460 32.090 C 296.650 41.758, 286.810 53.006, 278.595 69.656 C 274.891 77.164, 271 87.879, 271 90.569 C 271 90.988, 273.235 86.979, 275.968 81.661 C 287.398 59.414, 301.716 41.721, 318.382 29.250 C 324.001 25.045, 319.291 26.978, 311.460 32.090 M 362 34.334 C 357.325 37.808, 350.559 43.542, 346.963 47.076 C 340.155 53.767, 333.308 62, 334.551 62 C 334.947 62, 340.050 57.388, 345.891 51.750 C 351.732 46.112, 359.771 38.823, 363.755 35.551 C 369.749 30.629, 372.223 27.960, 370.750 28.008 C 370.613 28.013, 366.675 30.859, 362 34.334 M 287.013 40.815 C 279.070 49.127, 273.753 57.963, 270.474 68.302 C 268.321 75.092, 267.004 86.330, 268.542 84.792 C 268.840 84.494, 270.007 80.931, 271.136 76.875 C 274.221 65.787, 280.876 52.533, 288.270 42.750 C 291.907 37.938, 294.577 34, 294.204 34 C 293.830 34, 290.594 37.067, 287.013 40.815 M 96.391 47.829 C 63.610 58.913, 41.896 83.467, 34.899 117.364 C 32.189 130.495, 32.617 149.178, 35.922 162 C 44.580 195.597, 71.782 220.057, 106.059 225.069 L 114.067 226.240 113.784 236.185 L 113.500 246.130 94.345 254.455 C 70.592 264.777, 58.342 269.167, 45.553 271.938 C 31.546 274.973, 16.832 274.790, 6.420 271.452 C 4.596 270.867, 4.600 270.919, 6.500 272.498 C 18.015 282.063, 43.896 285.953, 64.084 281.153 C 73.899 278.819, 90.517 272.980, 104 267.128 C 109.225 264.860, 113.725 263.003, 114 263.001 C 114.275 262.999, 114.226 272.785, 113.892 284.749 C 113.258 307.427, 110.863 325.886, 106.925 338.445 C 104.314 346.771, 104.533 347.300, 108.192 341.500 C 120.297 322.313, 130.309 289.716, 132.624 261.951 L 133.282 254.069 140.391 251.131 C 169.223 239.216, 189.794 239.482, 210 252.030 C 212.772 253.751, 212.301 253.045, 207.737 248.633 C 197.550 238.787, 181.607 232.987, 164.803 233.013 C 157.652 233.024, 142.871 235.319, 136.095 237.470 C 134.245 238.057, 134 237.732, 134 234.692 C 134 232.799, 134.265 229.925, 134.589 228.305 C 135.149 225.506, 135.554 225.297, 142.750 224.088 C 183.357 217.265, 215.137 188.384, 224.544 149.755 C 226.817 140.421, 227.514 122.755, 225.999 112.879 C 222.760 91.763, 214.170 74.826, 200.086 61.786 C 185.482 48.265, 164.668 42.041, 148.500 46.359 C 127.740 51.905, 115.684 67.929, 110.325 97.099 C 107.917 110.203, 108.140 145.872, 110.870 184.422 C 112.035 200.880, 112.810 214.523, 112.592 214.741 C 111.753 215.580, 97.731 210.036, 92.979 206.987 C 84.309 201.423, 75.406 190.781, 70.012 179.533 C 50.128 138.072, 58.932 84.129, 89.760 58.541 C 93.396 55.522, 99.438 51.441, 103.186 49.472 C 109.496 46.156, 111.755 43.949, 108.750 44.036 C 108.063 44.056, 102.501 45.763, 96.391 47.829 M 269.578 46.850 C 267.696 50.488, 266.002 61.396, 266.138 69 C 266.223 73.781, 266.412 73.206, 267.588 64.598 C 268.332 59.151, 269.675 52.485, 270.572 49.783 C 272.456 44.111, 271.877 42.404, 269.578 46.850 M 253.970 53.220 C 251.255 59.445, 250.172 72.655, 251.835 79.258 C 253.051 84.088, 256.965 93.368, 257.543 92.791 C 257.749 92.584, 257.185 89.734, 256.288 86.457 C 254.309 79.226, 254.074 59.515, 255.890 53.149 C 257.652 46.975, 256.677 47.011, 253.970 53.220 M 263.562 58.250 C 263.193 59.487, 262.719 65.450, 262.508 71.500 L 262.125 82.500 262.992 73.500 C 263.469 68.550, 264.143 62.587, 264.491 60.250 C 265.170 55.683, 264.657 54.579, 263.562 58.250 M 150.327 58.039 C 142.525 60.444, 136.078 72.677, 134.011 89 C 132.390 101.806, 133.584 213.918, 135.361 215.694 C 136.648 216.981, 151.298 212.736, 159.353 208.741 C 171.360 202.787, 183.038 190.806, 189.370 177.945 C 197.827 160.767, 201.205 140.725, 199.196 119.647 C 197.776 104.747, 195.234 95.242, 189.528 83.500 C 181.732 67.458, 170.946 58.192, 159.179 57.430 C 156.055 57.227, 152.072 57.502, 150.327 58.039 M 242.102 66 C 239.540 74.705, 242.277 86.208, 248.233 91.765 C 250.581 93.955, 250.562 93.825, 247.640 87.765 C 245.125 82.549, 244.520 79.826, 244.023 71.500 L 243.427 61.500 242.102 66 M 913.618 115.112 C 907.278 116.601, 898.134 122.041, 893.914 126.835 C 872.989 150.607, 879.325 193.050, 905.787 206.377 C 918.967 213.016, 938.986 212.606, 955.115 205.368 L 960.769 202.830 960.840 186.808 C 960.918 169.038, 961.669 166.416, 966.981 165.354 C 968.571 165.036, 970.112 164.151, 970.405 163.388 C 971.335 160.963, 958.598 161.536, 953.989 164.126 C 948.426 167.253, 947.699 169.614, 947.216 186.115 L 946.789 200.730 943.144 202.530 C 940.761 203.707, 936.367 204.483, 930.443 204.775 C 922.652 205.159, 920.657 204.908, 916.173 202.979 C 908.735 199.780, 901.790 191.883, 898.976 183.429 C 893.222 166.138, 895.588 142.803, 904.247 131.431 C 910.629 123.050, 918.962 119.456, 930.175 120.250 C 941.522 121.053, 950.276 127.854, 953.620 138.463 C 954.957 142.705, 955.824 144, 957.328 144 C 959.145 144, 959.247 143.486, 958.710 137.075 C 957.871 127.073, 955.004 122.515, 947 118.461 C 938.772 114.293, 923.592 112.771, 913.618 115.112 M 252 117.896 C 252 119.574, 252.616 120, 255.045 120 C 256.946 120, 259.014 120.923, 260.545 122.455 C 263.270 125.179, 263.154 122.610, 263.409 186 L 263.500 208.500 269.750 208.798 L 276 209.095 276.148 204.298 C 276.229 201.659, 276.341 193.200, 276.398 185.500 L 276.500 171.500 285.500 171.335 C 290.450 171.244, 296.410 170.915, 298.744 170.605 C 308.220 169.344, 318.759 161.133, 320.928 153.321 C 322.803 146.567, 322.240 137.057, 319.633 131.459 C 316.764 125.298, 312.831 121.860, 305.266 118.900 C 299.999 116.839, 297.444 116.607, 275.750 116.218 C 252.140 115.795, 252 115.804, 252 117.896 M 324.183 117.710 C 324.380 118.733, 325.861 119.696, 327.867 120.107 C 334.745 121.513, 334.443 119.564, 335.037 166.284 C 335.333 189.503, 335.670 208.613, 335.787 208.750 C 335.904 208.887, 338.700 209, 342 209 C 347.856 209, 348.002 208.934, 348.093 206.250 C 348.145 204.738, 348.183 193.154, 348.179 180.509 C 348.170 155.204, 348.428 153.951, 354.347 150.454 C 356.073 149.434, 359.491 148.607, 362.136 148.569 C 367.863 148.485, 371.642 150.931, 374.489 156.565 C 376.275 160.100, 376.514 162.968, 376.842 184.795 L 377.206 209.090 383.353 208.795 L 389.500 208.500 389.445 184.500 C 389.386 158.889, 388.870 155.336, 384.325 149.249 C 378.014 140.799, 361.734 138.940, 351.773 145.531 L 348 148.028 348 135.965 C 348 117.861, 346.496 116, 331.862 116 C 324.844 116, 323.894 116.212, 324.183 117.710 M 432 117.910 C 432 119.548, 432.625 120, 434.889 120 C 436.478 120, 438.841 120.860, 440.139 121.911 L 442.500 123.822 442.781 166.508 L 443.063 209.195 464.781 208.753 C 490.862 208.223, 495.009 207.267, 502.145 200.137 C 507.646 194.640, 509.468 189.234, 508.700 180.683 C 507.833 171.025, 503.055 165.404, 492.746 161.914 C 488.730 160.555, 488.140 160.090, 489.767 159.574 C 490.884 159.220, 493.677 157.568, 495.975 155.903 C 506.692 148.140, 506.659 130.836, 495.913 123.052 C 488.142 117.423, 484.033 116.709, 456.750 116.243 C 432.178 115.824, 432 115.836, 432 117.910 M 786 117.872 C 786 119.267, 786.970 119.900, 789.808 120.353 C 792.001 120.704, 794.629 122.041, 796.005 123.505 L 798.394 126.048 798.699 165.774 C 798.866 187.623, 799.002 206.287, 799.002 207.250 C 799 208.527, 799.808 209, 801.988 209 L 804.975 209 805.238 172.372 L 805.500 135.745 808.219 139.566 C 809.714 141.668, 822.314 158.354, 836.219 176.645 C 855.994 202.659, 861.990 209.913, 863.750 209.951 L 866 210 866 163 L 866 116 863 116 L 860 116 860 150.629 L 860 185.258 854.183 177.879 C 850.984 173.821, 840.560 160.216, 831.019 147.646 C 821.477 135.077, 812.277 123.315, 810.574 121.509 C 806.858 117.570, 801.816 116.013, 792.750 116.006 C 786.818 116.001, 786 116.227, 786 117.872 M 409.302 119.501 C 403.327 123.686, 406.965 134, 414.416 134 C 418.641 134, 421 131.358, 421 126.626 C 421 119.867, 414.463 115.886, 409.302 119.501 M 277.200 123.200 C 275.854 124.546, 275.580 140.779, 276.650 155.846 L 277.299 165 284.406 165 C 293.570 165, 297.588 163.791, 301.713 159.794 C 309.676 152.075, 309.872 135.645, 302.092 127.860 C 300.092 125.858, 296.665 123.723, 294.477 123.115 C 289.174 121.643, 278.706 121.694, 277.200 123.200 M 457.750 122.633 C 456.170 123.097, 456 124.839, 456 140.573 L 456 158 464.250 157.994 C 474.022 157.988, 479.287 156.719, 483.856 153.270 C 488.433 149.815, 490.366 144.839, 489.688 138.264 C 488.599 127.712, 481.902 122.808, 468 122.381 C 463.325 122.237, 458.712 122.351, 457.750 122.633 M 547.500 141.907 C 543.608 142.874, 540.057 144.743, 537.250 147.299 C 536.013 148.426, 535 148.820, 535 148.174 C 535 147.528, 534.100 146.100, 533 145 C 531.296 143.296, 529.667 143, 522 143 C 515.200 143, 513 143.324, 513 144.324 C 513 145.052, 514.676 146.064, 516.725 146.574 C 522.791 148.082, 522.969 149.053, 522.985 180.750 L 523 209 529.500 209 L 536 209 536 183.723 C 536 156.074, 536.101 155.551, 542.011 152.494 C 546.158 150.350, 554.228 150.554, 557.096 152.877 C 559.370 154.718, 559.467 154.715, 562.207 152.689 C 563.743 151.553, 565 150.080, 565 149.416 C 565 147.698, 558.266 142.003, 556.215 141.986 C 555.272 141.979, 553.600 141.790, 552.500 141.567 C 551.400 141.344, 549.150 141.497, 547.500 141.907 M 589.803 142.340 C 580.435 144.980, 573.139 152.067, 569.319 162.239 C 567.081 168.197, 567.086 182.989, 569.328 189.500 C 572.116 197.595, 576.993 203.341, 584.086 206.885 C 589.429 209.555, 591.403 209.999, 597.910 209.990 C 607.268 209.978, 613.727 207.280, 619.363 201.029 C 626.022 193.643, 627.468 189.187, 627.485 176 C 627.498 165.664, 627.235 163.935, 624.880 158.914 C 623.439 155.841, 620.692 151.759, 618.775 149.842 C 611.662 142.729, 599.551 139.593, 589.803 142.340 M 749.086 142.025 C 733.640 145.267, 727.816 162.067, 738.627 172.190 C 741.221 174.619, 744.657 176.376, 760.341 183.292 C 765.905 185.746, 770 190.086, 770 193.530 C 770 200.188, 764.817 204.015, 755.849 203.978 C 746.648 203.940, 740.808 200.106, 737.223 191.750 C 735.204 187.044, 733 188.245, 733 194.050 C 733 204.735, 739.181 209.261, 754.559 209.839 C 764.595 210.217, 770.023 209.133, 775.045 205.749 C 782.750 200.556, 784.860 189.921, 779.724 182.160 C 777.404 178.653, 774.935 177.040, 762.316 170.787 C 746.115 162.758, 744.351 160.951, 746.172 154.255 C 747.447 149.566, 751.028 147.622, 758.361 147.639 C 767.640 147.661, 773.933 151.864, 775.523 159.103 C 775.983 161.197, 776.687 162.007, 777.842 161.769 C 779.174 161.494, 779.455 160.373, 779.269 156.067 C 778.982 149.407, 777.042 146.349, 771.570 143.928 C 766.497 141.684, 755.247 140.732, 749.086 142.025 M 628.667 142.667 C 627.332 144.002, 628.070 145.002, 631.422 146.403 C 633.304 147.189, 635.527 148.883, 636.361 150.166 C 638.096 152.837, 646.078 172.464, 654.491 194.750 C 662.586 216.192, 662.444 216.237, 672.529 188.986 C 676.806 177.428, 680.574 168.241, 680.903 168.569 C 681.231 168.898, 685.100 178.242, 689.500 189.333 C 695.988 205.689, 697.887 209.555, 699.547 209.793 C 701.366 210.053, 702.584 207.375, 710.469 185.793 C 715.351 172.432, 720.836 157.450, 722.658 152.500 C 724.481 147.550, 725.978 143.387, 725.986 143.250 C 725.994 143.113, 724.473 143, 722.607 143 L 719.214 143 714.561 155.750 C 712.002 162.762, 708.297 172.906, 706.328 178.291 C 704.359 183.676, 702.643 187.951, 702.514 187.791 C 702.385 187.631, 699.285 179.976, 695.623 170.779 C 691.962 161.583, 688.038 152.485, 686.904 150.561 C 683.848 145.383, 679.252 142.989, 671.044 142.300 C 664.934 141.788, 664 141.928, 664 143.355 C 664 144.260, 664.659 145, 665.465 145 C 667.935 145, 673.704 150.804, 675.369 154.963 L 676.944 158.901 671.300 173.448 L 665.656 187.994 658.522 170.247 C 650.390 150.017, 650.029 149.277, 646.842 146.346 C 643.207 143.003, 630.835 140.498, 628.667 142.667 M 397 144.500 C 397 145.487, 397.988 146, 399.889 146 C 403.910 146, 406.933 148.786, 408.025 153.500 C 408.535 155.700, 408.963 169.109, 408.976 183.298 L 409 209.095 415.250 208.798 L 421.500 208.500 421.500 180.500 C 421.500 165.100, 421.157 151.275, 420.738 149.778 C 419.185 144.229, 416.568 143, 406.311 143 C 398.701 143, 397 143.274, 397 144.500 M 589.661 150.993 C 577.385 161.771, 578.458 193.940, 591.359 201.913 C 596.636 205.174, 601.243 204.679, 606.054 200.333 C 611.928 195.026, 613.196 191.338, 613.733 178 C 614.137 167.971, 613.922 165.775, 612.055 160.828 C 609.044 152.849, 603.554 148, 597.532 148 C 594.002 148, 592.357 148.625, 589.661 150.993 M 456.750 164.548 C 456.337 164.980, 456 173.535, 456 183.560 C 456 199.257, 456.219 201.870, 457.582 202.393 C 460.633 203.564, 476.687 202.985, 481.596 201.527 C 484.681 200.611, 487.865 198.703, 490.022 196.477 C 493.285 193.111, 493.508 192.445, 493.802 185.200 C 494.210 175.130, 492.396 171.588, 484.837 167.691 C 480.163 165.281, 477.829 164.802, 468.444 164.322 C 462.425 164.014, 457.163 164.116, 456.750 164.548 M 317 235.981 C 282.078 236.440, 287.873 236.587, 367 237.249 C 482.104 238.213, 742.361 238.213, 856.585 237.250 C 939.511 236.551, 942.637 236.464, 903 235.966 C 848.593 235.282, 369.200 235.294, 317 235.981 M 740.500 261.815 C 737.344 262.433, 735 265.071, 735 268.006 C 735 269.961, 736.375 271.969, 740 275.308 C 745.105 280.010, 745.454 280.654, 744.393 283.418 C 743.436 285.913, 737.581 285.467, 735.621 282.750 L 733.999 280.500 734.249 283.500 C 734.485 286.323, 734.778 286.518, 739.197 286.803 C 742.867 287.039, 744.344 286.656, 745.947 285.053 C 749.494 281.506, 748.595 278.399, 742.263 272.315 L 736.526 266.802 738.874 264.901 C 741.823 262.513, 742.524 262.524, 745 265 L 747 267 747 264.617 C 747 262.113, 744.493 261.032, 740.500 261.815 M 262.898 264.280 C 258.292 267.370, 256.417 273.073, 258.214 278.525 C 260.057 284.118, 264.728 287, 271.948 287 C 277.940 287, 280 285.868, 280 282.577 C 280 280.633, 279.940 280.641, 278.443 282.777 C 277.233 284.505, 275.901 285, 272.459 285 C 261.080 285, 256.450 269.091, 266.443 264.326 C 269.352 262.939, 270.574 262.856, 273.810 263.825 C 276.086 264.507, 278.138 265.919, 278.777 267.243 C 279.813 269.392, 279.868 269.350, 279.932 266.357 C 280.013 262.620, 278.822 262, 271.566 262 C 267.740 262, 265.364 262.625, 262.898 264.280 M 292.893 263.497 C 284.953 267.812, 284.999 281.362, 292.967 285.483 C 297.274 287.710, 303.118 287.394, 307.102 284.717 C 314.336 279.858, 314.669 268.208, 307.696 263.956 C 303.916 261.651, 296.701 261.428, 292.893 263.497 M 322.571 263.571 C 319.529 266.614, 320.626 270.339, 326 275.214 C 332.154 280.796, 332.525 283.787, 327.267 285.427 C 325.607 285.945, 324.369 285.460, 322.448 283.539 L 319.863 280.954 320.181 283.727 C 320.473 286.267, 320.894 286.525, 325.197 286.803 C 328.867 287.039, 330.344 286.656, 331.947 285.053 C 335.996 281.004, 334.563 277.654, 325.646 270.326 C 322.591 267.815, 322.392 266.751, 324.571 264.571 C 326.678 262.465, 328.592 262.592, 331 265 L 333 267 333 264.500 C 333 262.210, 332.629 262, 328.571 262 C 325.879 262, 323.527 262.616, 322.571 263.571 M 345 263.539 C 345 268.543, 342.669 284.694, 341.795 285.747 C 341.003 286.702, 341.439 287.001, 343.628 287.002 L 346.500 287.005 346.174 279.002 C 345.994 274.601, 346.232 271, 346.702 271 C 347.171 271, 349.399 274.712, 351.653 279.250 L 355.751 287.500 360.125 278.694 C 365.025 268.832, 365.714 269.077, 365.900 280.750 L 366 287 369.691 287 C 372.899 287, 373.157 286.835, 371.664 285.744 C 370.397 284.817, 369.605 281.671, 368.642 273.746 C 367.924 267.838, 367.083 262.750, 366.772 262.439 C 366.461 262.128, 364.023 266.447, 361.353 272.037 L 356.500 282.202 351.540 272.101 C 346.824 262.498, 345 260.110, 345 263.539 M 379.813 262.863 C 380.806 263.493, 381.050 266.551, 380.813 275.390 L 380.500 287.084 387 286.792 C 393.131 286.517, 393.510 286.358, 393.685 284 C 393.791 282.556, 393.655 282.239, 393.361 283.250 C 392.989 284.533, 391.806 285, 388.927 285 L 385 285 385 280 C 385 275.190, 385.107 275, 387.800 275 C 389.340 275, 391.140 275.540, 391.800 276.200 C 392.733 277.133, 393 276.821, 393 274.795 C 393 272.333, 392.780 272.220, 389 272.727 L 385 273.263 385 268.632 C 385 264.027, 385.020 264, 388.417 264 C 390.296 264, 392.060 264.563, 392.338 265.250 C 392.615 265.938, 392.878 265.488, 392.921 264.250 C 392.996 262.115, 392.630 262.001, 385.750 262.015 C 381.497 262.024, 379.043 262.375, 379.813 262.863 M 400 264.200 C 400 265.911, 400.267 266.133, 401.200 265.200 C 401.860 264.540, 403.885 264, 405.700 264 L 409 264 409 274.300 C 409 280.978, 408.578 285.022, 407.800 285.800 C 406.867 286.733, 407.549 287, 410.871 287 C 414.755 287, 415 286.857, 413.571 285.429 C 412.354 284.211, 412 281.621, 412 273.929 L 412 264 415.300 264 C 417.115 264, 419.140 264.540, 419.800 265.200 C 420.733 266.133, 421 265.911, 421 264.200 C 421 262.073, 420.652 262, 410.500 262 C 400.348 262, 400 262.073, 400 264.200 M 428.800 263.200 C 430.440 264.840, 430.440 284.160, 428.800 285.800 C 427.867 286.733, 428.589 286.997, 432.050 286.985 C 435.244 286.974, 436.077 286.702, 435 286.022 C 433.868 285.308, 433.414 282.568, 433.150 274.847 C 432.845 265.923, 433.029 264.452, 434.591 263.309 C 436.167 262.157, 435.855 262, 431.991 262 C 428.576 262, 427.867 262.267, 428.800 263.200 M 448.763 263.565 C 445.213 265.491, 443 269.869, 443 274.965 C 443 278.198, 443.700 279.793, 446.422 282.765 C 449.778 286.427, 449.987 286.500, 457.172 286.500 L 464.500 286.500 464.812 283.500 L 465.124 280.500 463.505 282.750 C 460.630 286.746, 451.613 285.392, 448.395 280.480 C 445.909 276.687, 446.241 269.437, 449.037 266.461 C 453.155 262.077, 461.371 262.417, 463.735 267.070 C 464.929 269.418, 464.971 269.374, 464.985 265.750 L 465 262 458.250 262.040 C 454.248 262.064, 450.386 262.685, 448.763 263.565 M 486.863 263.335 C 487.826 264.495, 488.088 267.884, 487.840 275.962 L 487.500 287.002 491.500 286.971 C 494.703 286.945, 495.151 286.736, 493.750 285.920 C 492.260 285.052, 492 283.348, 492 274.450 L 492 264 494.477 264 C 496.045 264, 497.583 264.960, 498.667 266.615 C 500.195 268.947, 500.223 269.512, 498.925 271.824 C 498.125 273.250, 496.352 274.728, 494.985 275.109 C 492.508 275.798, 492.510 275.801, 495.295 275.900 C 498.727 276.023, 503 272.050, 503 268.737 C 503 264.036, 500.807 262.611, 492.882 262.163 C 486.273 261.790, 485.677 261.906, 486.863 263.335 M 510.800 263.200 C 512.505 264.905, 512.460 285.648, 510.750 286.338 C 510.063 286.615, 511.502 286.878, 513.950 286.921 C 517.411 286.982, 518.133 286.733, 517.200 285.800 C 516.540 285.140, 516 282.635, 516 280.233 C 516 276.163, 516.154 275.913, 518.250 276.564 C 519.487 276.948, 520.875 277.905, 521.333 278.691 C 524.128 283.484, 528.371 287, 531.354 286.993 L 534.500 286.987 531.753 285.175 C 530.242 284.179, 527.698 281.610, 526.100 279.466 C 523.207 275.586, 523.202 275.558, 525.097 273.150 C 527.555 270.025, 527.517 266.517, 525 264 C 523.398 262.398, 521.667 262, 516.300 262 C 511.089 262, 509.867 262.267, 510.800 263.200 M 542.190 264.026 C 535.209 268.282, 534.398 277.598, 540.479 283.679 C 543.288 286.488, 544.517 287, 548.450 287 C 553.789 287, 558.047 285.115, 560.193 281.801 C 564.041 275.861, 563.105 268.949, 557.857 264.533 C 554.007 261.293, 547.041 261.068, 542.190 264.026 M 574.225 264.004 C 570.590 266.220, 569 269.421, 569 274.518 C 569 282.933, 574.362 287.266, 584.197 286.799 C 590.387 286.505, 590.506 286.446, 590.812 283.500 L 591.124 280.500 589.505 282.750 C 588.376 284.320, 586.865 285, 584.508 285 C 576.802 285, 572.867 281.158, 572.752 273.522 C 572.655 267.110, 575.661 263.994, 581.924 264.015 C 586.973 264.032, 588.128 264.543, 589.805 267.500 C 590.806 269.266, 590.943 269.061, 590.970 265.750 L 591 262 584.250 262.004 C 579.269 262.006, 576.642 262.531, 574.225 264.004 M 599.800 263.200 C 600.575 263.975, 601 267.978, 601 274.500 C 601 281.022, 600.575 285.025, 599.800 285.800 C 598.867 286.733, 600.311 287, 606.300 287 L 614 287 613.970 284.250 C 613.944 281.899, 613.791 281.754, 612.920 283.250 C 612.261 284.382, 610.681 285, 608.450 285 L 605 285 605 280 C 605 275.111, 605.067 275, 608 275 C 609.696 275, 611.031 275.543, 611.070 276.250 C 611.134 277.383, 612.763 274.401, 612.930 272.845 C 612.968 272.485, 611.200 272.432, 609 272.727 L 605 273.263 605 268.632 C 605 264.226, 605.136 264, 607.800 264 C 609.340 264, 611.140 264.540, 611.800 265.200 C 612.733 266.133, 613 265.911, 613 264.200 C 613 262.137, 612.552 262, 605.800 262 C 600.200 262, 598.867 262.267, 599.800 263.200 M 622.800 263.200 C 623.575 263.975, 624 267.978, 624 274.500 C 624 281.022, 623.575 285.025, 622.800 285.800 C 621.867 286.733, 623.367 286.999, 629.550 286.996 C 639.046 286.992, 643.283 284.961, 645.658 279.276 C 648.375 272.774, 646.122 266.666, 639.802 263.398 C 636.285 261.579, 621.001 261.401, 622.800 263.200 M 653.250 263.080 C 654.686 263.917, 655 265.536, 655 272.115 C 655 283.536, 657.203 286.911, 664.694 286.968 C 667.718 286.991, 669.672 286.326, 671.694 284.587 C 674.310 282.337, 674.524 281.574, 674.852 273.337 C 675.046 268.476, 675.664 263.938, 676.225 263.250 C 677.008 262.290, 676.358 262, 673.422 262 C 670.449 262, 669.867 262.267, 670.800 263.200 C 672.648 265.048, 672.375 280.020, 670.443 282.777 C 668.481 285.579, 663.033 285.799, 660.655 283.171 C 658.553 280.849, 658.210 263.485, 660.250 262.662 C 660.938 262.385, 659.250 262.136, 656.500 262.109 C 652.641 262.072, 651.899 262.293, 653.250 263.080 M 684.750 262.662 C 686.460 263.352, 686.505 284.095, 684.800 285.800 C 683.867 286.733, 684.700 286.974, 688.550 286.884 C 691.273 286.820, 692.712 286.562, 691.750 286.311 C 690.416 285.962, 690 284.802, 690 281.427 C 690 277.372, 690.210 277, 692.500 277 C 693.875 277, 695 277.369, 695 277.820 C 695 278.271, 696.610 280.521, 698.578 282.820 C 701.410 286.129, 702.817 286.992, 705.328 286.960 L 708.500 286.920 705.985 285.551 C 704.602 284.798, 702.061 282.220, 700.339 279.822 C 697.226 275.487, 697.219 275.448, 699.104 273.120 C 701.557 270.091, 701.516 266.516, 699 264 C 697.375 262.375, 695.734 262.015, 690.250 262.079 C 686.538 262.122, 684.063 262.385, 684.750 262.662 M 712.250 263.080 C 713.692 263.920, 714 265.545, 714 272.306 C 714 276.820, 713.581 281.973, 713.070 283.757 L 712.140 287 718.963 287 C 724.262 287, 725.922 286.647, 726.393 285.418 C 727.460 282.638, 726.982 281.439, 725.557 283.320 C 724.595 284.589, 723.167 285.043, 720.839 284.820 C 717.618 284.511, 717.489 284.333, 717.195 279.750 L 716.890 275 720.362 275 C 722.271 275, 724.060 275.563, 724.338 276.250 C 724.615 276.938, 724.878 276.363, 724.921 274.974 C 724.995 272.619, 724.728 272.473, 721 272.829 L 717 273.210 717 268.605 C 717 264.009, 717.007 264, 720.500 264 C 723.003 264, 724 264.444, 724 265.559 C 724 266.416, 724.450 266.840, 725 266.500 C 725.550 266.160, 726 265.009, 726 263.941 C 726 262.184, 725.265 262.003, 718.250 262.030 C 712.497 262.053, 710.951 262.323, 712.250 263.080 M 774.155 263.588 C 772.245 264.939, 771.892 265.919, 772.252 268.873 C 772.589 271.639, 772.137 273.171, 770.347 275.327 C 767.457 278.808, 767.392 280.957, 770.073 284.365 C 772.401 287.325, 777.817 287.952, 782.527 285.806 C 784.559 284.880, 785.578 284.880, 787.061 285.806 C 788.112 286.463, 790.441 286.986, 792.236 286.970 C 795.155 286.942, 795.289 286.824, 793.500 285.847 C 792.400 285.247, 790.485 284.123, 789.244 283.351 L 786.987 281.945 788.994 278.013 C 790.097 275.849, 791 273.837, 791 273.540 C 791 273.243, 789.538 273.036, 787.750 273.079 C 785.962 273.122, 785.063 273.385, 785.750 273.662 C 787.321 274.296, 787.391 278.640, 785.846 279.595 C 785.163 280.017, 782.713 278.235, 779.846 275.229 C 776.252 271.461, 775 269.372, 775 267.142 C 775 263.102, 778.584 261.768, 781.098 264.873 C 783.316 267.612, 784.220 267.571, 783.820 264.750 C 783.567 262.975, 782.762 262.440, 780 262.215 C 777.936 262.047, 775.538 262.610, 774.155 263.588 M 812.250 263.080 C 813.737 263.946, 814 265.642, 814 274.350 C 814 280.989, 813.577 285.023, 812.800 285.800 C 811.867 286.733, 812.948 287, 817.665 287 C 822.287 287, 824.357 286.507, 826.365 284.927 C 829.847 282.188, 829.902 277.741, 826.493 274.581 C 824.301 272.550, 824.175 272.099, 825.493 271.006 C 826.322 270.318, 827 268.711, 827 267.434 C 827 263.849, 823.409 261.996, 816.527 262.030 C 811.945 262.054, 810.920 262.305, 812.250 263.080 M 837.800 263.200 C 839.479 264.879, 839.437 284.163, 837.751 285.849 C 836.753 286.847, 838.006 287.038, 844.001 286.799 C 851.167 286.513, 851.512 286.389, 851.777 284 C 852.017 281.837, 851.909 281.736, 850.977 283.250 C 849.904 284.994, 843.141 285.829, 842.872 284.250 C 842.802 283.837, 842.627 281.587, 842.484 279.250 C 842.226 275.054, 842.265 275, 845.528 275 C 847.346 275, 849.021 275.563, 849.251 276.250 C 849.481 276.938, 849.894 276.326, 850.169 274.892 C 850.656 272.348, 850.560 272.295, 846.315 272.774 L 841.962 273.264 842.231 268.637 C 842.489 264.206, 842.629 264.010, 845.550 264.005 C 847.227 264.002, 849.140 264.540, 849.800 265.200 C 850.733 266.133, 851 265.911, 851 264.200 C 851 262.137, 850.552 262, 843.800 262 C 838.200 262, 836.867 262.267, 837.800 263.200 M 867.726 262.663 C 867.451 263.123, 865.342 268.333, 863.041 274.241 C 860.739 280.148, 858.101 285.422, 857.178 285.960 C 855.870 286.723, 856.340 286.946, 859.309 286.970 C 861.649 286.988, 862.875 286.607, 862.488 285.980 C 862.141 285.420, 862.375 283.395, 863.006 281.480 C 864.053 278.310, 864.497 278, 867.995 278 C 871.624 278, 871.929 278.246, 873.553 282.500 C 875.087 286.517, 875.606 286.997, 878.386 286.968 C 881.128 286.940, 881.299 286.783, 879.817 285.657 C 878.892 284.954, 876.270 279.680, 873.991 273.939 C 869.752 263.259, 868.604 261.193, 867.726 262.663 M 885.250 263.080 C 886.711 263.931, 887 265.583, 887 273.095 C 887 281.313, 887.212 282.303, 889.455 284.545 C 892.810 287.901, 899.751 287.978, 903.558 284.704 C 906.011 282.594, 906.271 281.638, 906.754 272.954 C 907.046 267.726, 907.777 263.172, 908.390 262.765 C 909.001 262.361, 907.475 262.037, 905 262.046 C 901.461 262.058, 900.874 262.278, 902.250 263.080 C 904.857 264.599, 904.792 279.801, 902.164 283.046 C 900.010 285.705, 894.578 286.006, 892.171 283.600 C 890.124 281.553, 889.197 265.673, 890.997 263.503 C 892.076 262.204, 891.652 262.004, 887.872 262.030 C 884.416 262.054, 883.867 262.274, 885.250 263.080 M 914 264.122 C 914 265.856, 914.264 266.026, 915.440 265.050 C 916.231 264.393, 918.144 264.001, 919.690 264.178 C 922.495 264.499, 922.501 264.516, 922.793 272.907 C 922.954 277.531, 922.640 282.594, 922.095 284.157 C 921.108 286.989, 921.120 287, 925.302 286.970 C 928.640 286.945, 929.141 286.730, 927.750 285.920 C 926.260 285.052, 926 283.348, 926 274.450 L 926 264 929.300 264 C 931.115 264, 933.140 264.540, 933.800 265.200 C 934.733 266.133, 935 265.911, 935 264.200 C 935 262.073, 934.652 262, 924.500 262 C 914.465 262, 914 262.094, 914 264.122 M 941.862 265.750 C 948.308 273.928, 950.905 282.695, 947.800 285.800 C 946.867 286.733, 947.589 286.993, 951.050 286.970 C 954.559 286.946, 955.130 286.724, 953.750 285.920 C 949.604 283.505, 952.822 272.283, 959.820 264.750 L 962.374 262 959.128 262 C 957.334 262, 956.144 262.425, 956.469 262.950 C 957.034 263.865, 952.019 273.971, 951 273.971 C 949.981 273.971, 944.966 263.865, 945.531 262.950 C 945.860 262.417, 944.534 262, 942.512 262 L 938.906 262 941.862 265.750 M 294.831 264.530 C 289.518 267.415, 288.813 277.348, 293.557 282.467 C 295.395 284.451, 296.875 285, 300.380 285 C 306.354 285, 309 281.858, 309 274.765 C 309 270.452, 308.554 269.354, 305.600 266.400 C 301.903 262.703, 299.093 262.215, 294.831 264.530 M 545.359 264.453 C 543.161 265.404, 541.854 266.911, 541.009 269.471 C 538.431 277.284, 542.660 285, 549.520 285 C 554.693 285, 556.784 283.517, 558.005 278.983 C 560.661 269.119, 553.526 260.921, 545.359 264.453 M 516 269.500 C 516 274.255, 516.260 275, 517.918 275 C 521.837 275, 523 273.877, 523 270.093 C 523 265.846, 521.576 264, 518.300 264 C 516.179 264, 516 264.428, 516 269.500 M 627 271.248 C 627 275.374, 627.281 280.156, 627.625 281.875 C 628.209 284.793, 628.535 285, 632.543 285 C 638.245 285, 639.794 284.298, 641.537 280.928 C 643.901 276.357, 643.397 271.476, 640.191 267.887 C 637.906 265.331, 636.411 264.650, 632.191 264.244 L 627 263.746 627 271.248 M 690 269.500 C 690 274.572, 690.179 275, 692.300 275 C 695.448 275, 697 273.184, 697 269.500 C 697 265.816, 695.448 264, 692.300 264 C 690.179 264, 690 264.428, 690 269.500 M 817 268.500 C 817 272.529, 817.241 273, 819.300 273 C 822.166 273, 824 271.244, 824 268.500 C 824 265.756, 822.166 264, 819.300 264 C 817.241 264, 817 264.471, 817 268.500 M 866.613 270.407 C 866.280 271.731, 865.733 273.531, 865.397 274.407 C 864.916 275.661, 865.471 276, 868 276 C 870.529 276, 871.084 275.661, 870.603 274.407 C 870.267 273.531, 869.720 271.731, 869.387 270.407 C 869.055 269.083, 868.431 268, 868 268 C 867.569 268, 866.945 269.083, 866.613 270.407 M 773.206 275.194 C 771.408 276.992, 771.749 281.463, 773.829 283.345 C 776.023 285.331, 780.331 285.511, 781.850 283.681 C 783.443 281.762, 774.963 273.437, 773.206 275.194 M 817.198 279.250 C 817.491 284.345, 817.594 284.509, 820.684 284.808 C 823.107 285.043, 824.142 284.604, 825.017 282.968 C 826.540 280.122, 824.652 275.409, 821.668 274.609 C 817.199 273.410, 816.881 273.741, 817.198 279.250" stroke="none" fill="#d3ab34" fill-rule="evenodd"/></svg>