<svg xmlns="http://www.w3.org/2000/svg" width="900" height="323" viewBox="0 0 900 323" version="1.1"><path d="M 96 16.121 C 79.815 20.472, 61.670 34.379, 50.491 51 C 45.239 58.809, 43.595 62.302, 40.370 72.500 C 37.791 80.655, 37.528 82.814, 37.571 95.500 C 37.612 107.883, 37.944 110.598, 40.447 119 C 43.021 127.641, 44.354 130.833, 49.513 140.709 C 52.238 145.927, 62.048 157.024, 69.374 163.177 C 77.883 170.324, 88.418 175.524, 99.759 178.178 C 104.567 179.302, 109.063 180.383, 109.750 180.580 C 110.551 180.809, 111 182.873, 111 186.329 C 111 189.295, 111.277 193.739, 111.615 196.205 L 112.229 200.689 103.865 203.294 C 84.997 209.168, 77.683 211.160, 66.375 213.504 C 58.301 215.178, 54.087 216.530, 53.211 217.728 C 52.372 218.873, 52.023 221.936, 52.211 226.494 L 52.500 233.500 60.932 233.268 C 65.570 233.140, 69.823 232.577, 70.382 232.018 C 70.942 231.458, 72.686 231, 74.257 231 C 77.718 231, 83.893 229.579, 94.331 226.381 C 98.638 225.061, 102.575 224.237, 103.081 224.550 C 103.586 224.862, 104 224.663, 104 224.106 C 104 222.955, 113.037 218.704, 113.820 219.487 C 114.101 219.768, 114.645 226.016, 115.028 233.373 C 115.412 240.729, 116.035 247.248, 116.414 247.860 C 116.792 248.472, 117.974 258.542, 119.041 270.237 C 120.107 281.931, 121.209 292.625, 121.490 294 C 121.771 295.375, 122.496 300.550, 123.101 305.500 C 124.239 314.814, 124.559 316, 125.930 316 C 127.425 316, 127.984 302.757, 128.039 266 C 128.094 229.490, 128.610 215.250, 129.954 213.075 C 130.347 212.438, 134.906 210.047, 140.085 207.761 C 149.276 203.704, 149.809 203.596, 162.518 203.210 C 173.230 202.885, 177.098 203.186, 184.347 204.907 C 194.763 207.381, 195 207.397, 195 205.637 C 195 203.940, 185.343 199.175, 173.510 195.033 C 162.577 191.207, 148.558 189.972, 139.024 191.995 C 135.678 192.705, 132.703 193.671, 132.412 194.143 C 132.120 194.614, 131.234 195, 130.441 195 C 129.334 195, 129 193.493, 129 188.500 C 129 182.096, 129.040 181.999, 131.750 181.918 C 134.548 181.834, 135.202 181.752, 147.500 179.937 C 155.416 178.769, 168.845 175.157, 170.791 173.672 C 171.501 173.130, 174.201 171.696, 176.791 170.484 C 195.242 161.853, 212.334 140.249, 216.431 120.379 C 217.324 116.046, 218.525 111.030, 219.098 109.234 C 220.397 105.167, 220.444 85.794, 219.162 83.324 C 218.641 82.321, 217.680 78.575, 217.025 75 C 212.328 49.347, 194.254 27.104, 171.744 19.276 C 165.296 17.034, 163.517 16.848, 152.568 17.270 C 138.265 17.822, 135.176 18.672, 126.823 24.356 C 117.271 30.854, 110.671 41.034, 108.955 51.914 C 105.303 75.067, 104.119 97.711, 105.944 109.500 C 106.455 112.800, 107.357 124.725, 107.948 136 C 108.540 147.275, 109.223 158.638, 109.465 161.250 C 110.013 167.153, 108.971 167.325, 99.958 162.821 C 85.932 155.812, 74.495 140.500, 68.723 121 C 63.927 104.799, 62.944 91.002, 65.481 75.500 C 69.503 50.920, 79.065 33.668, 95.034 22.180 C 99.376 19.056, 102.945 16.163, 102.964 15.750 C 103.010 14.791, 100.439 14.928, 96 16.121 M 145.309 33.403 C 141.270 35.239, 136.401 41.909, 134.551 48.141 C 133.764 50.789, 132.651 58.253, 132.076 64.728 C 131.143 75.237, 128.997 142.973, 128.999 161.847 L 129 169.193 133.750 168.696 C 143.859 167.638, 159 162.878, 159 160.757 C 159 160.276, 159.417 160.140, 159.926 160.454 C 161.366 161.344, 173.069 151.900, 177.314 146.422 C 181.221 141.380, 183.480 137.178, 183.120 135.625 C 183.008 135.144, 183.679 133.907, 184.611 132.877 C 189.722 127.230, 193.637 104.225, 191.969 89.647 C 190.452 76.390, 184.736 59.385, 178.673 50.091 C 173.422 42.043, 170.899 39.397, 164.564 35.291 C 159.685 32.129, 150.166 31.195, 145.309 33.403 M 848.500 106.947 C 831.161 110.349, 819.337 122.484, 815.438 140.878 C 810.403 164.634, 820.120 188.046, 838.791 197.142 C 844.444 199.896, 846.894 200.475, 854.414 200.834 C 862.817 201.236, 876.294 199.664, 878.500 198.024 C 879.050 197.615, 881.659 196.474, 884.297 195.487 C 886.936 194.500, 889.523 192.891, 890.047 191.912 C 890.571 190.933, 891.006 184.139, 891.014 176.816 C 891.021 169.492, 891.303 162.470, 891.641 161.210 C 892 159.868, 893.649 158.338, 895.627 157.511 C 899.259 155.994, 900.086 153.480, 897.250 152.579 C 894.683 151.765, 884.120 153.691, 881.408 155.468 C 877.309 158.154, 876.577 160.877, 876.027 175.490 C 875.414 191.750, 875.831 191.180, 863.266 192.962 C 854.931 194.144, 848.475 192.664, 842.782 188.265 C 832.084 179.998, 827.166 162.012, 830.430 143.096 C 832.826 129.213, 837.755 121.234, 846.569 116.966 C 850.326 115.148, 852.409 114.854, 859.440 115.148 C 870.605 115.616, 874.782 118.368, 880.500 129.024 C 886.386 139.993, 889.932 139.304, 888.454 127.479 C 887.669 121.194, 883.839 115.092, 878.720 111.970 C 871.935 107.832, 856.806 105.317, 848.500 106.947 M 236.596 109.844 C 235.495 111.626, 237.091 113.768, 239.943 114.339 C 245.846 115.519, 245.988 116.103, 246.128 139.821 C 246.198 151.745, 246.535 169.825, 246.878 180 L 247.500 198.500 253.682 198.796 L 259.864 199.092 260.402 194.796 C 260.698 192.433, 261.225 184.313, 261.572 176.750 L 262.205 163 270.053 163 C 274.370 163, 280.099 162.529, 282.784 161.953 C 289.271 160.562, 296.747 155.524, 300.392 150.088 C 302.868 146.395, 303.422 144.418, 303.797 137.945 C 304.186 131.232, 303.916 129.508, 301.748 124.857 C 298.518 117.928, 295.941 115.334, 289.092 112.122 C 283.640 109.565, 282.922 109.492, 260.350 109.184 C 246.029 108.989, 236.969 109.241, 236.596 109.844 M 304.473 110.044 C 303.509 111.603, 305.754 113.787, 309.070 114.515 C 310.967 114.932, 312.173 115.926, 312.486 117.330 C 312.999 119.625, 315 178.645, 315 191.461 L 315 199 321.500 199 C 325.075 199, 328.079 198.887, 328.175 198.750 C 328.272 198.613, 328.609 186.869, 328.925 172.653 L 329.500 146.807 332.402 144.494 C 339.771 138.624, 349.522 141.699, 351.883 150.639 C 352.444 152.762, 352.993 163.417, 353.103 174.316 C 353.213 185.214, 353.512 195.227, 353.768 196.566 C 354.203 198.842, 354.648 199, 360.617 199 L 367 199 367 176.549 C 367 164.132, 366.513 151.829, 365.911 149.020 C 364.679 143.276, 361.470 138.953, 355.765 135.352 C 350.573 132.074, 340.612 131.851, 334 134.865 L 329.500 136.916 328.850 134.708 C 328.492 133.494, 328.155 128.990, 328.100 124.700 C 327.994 116.420, 326.415 111.828, 323.055 110.030 C 320.532 108.679, 305.309 108.691, 304.473 110.044 M 405.169 111.075 C 405.389 112.579, 406.570 113.694, 408.706 114.416 C 410.469 115.012, 412.456 116.047, 413.122 116.716 C 414.014 117.612, 414.442 128.518, 414.751 158.216 C 414.981 180.372, 415.368 198.699, 415.610 198.942 C 416.783 200.119, 453.894 198.778, 459.459 197.358 C 470.821 194.458, 478.027 185.261, 477.978 173.721 C 477.941 164.948, 472.045 155.837, 464.585 153.023 L 461.670 151.924 465.865 148.012 C 471.065 143.163, 473 138.686, 473 131.500 C 473 124.277, 471.212 120.194, 466.155 115.865 C 459.523 110.188, 457.081 109.746, 429.669 109.260 L 404.837 108.819 405.169 111.075 M 725 111.421 C 725 113.288, 725.674 113.989, 727.953 114.490 C 729.577 114.846, 732.023 116.017, 733.388 117.091 L 735.870 119.043 735.938 157.448 C 735.975 178.570, 736.261 196.516, 736.572 197.327 C 737.397 199.477, 740.801 200.057, 742.518 198.340 C 744.017 196.840, 744.151 193.142, 744.426 145.750 C 744.467 138.737, 744.725 133.011, 745 133.025 C 745.275 133.039, 748.425 137.104, 752 142.058 C 755.575 147.012, 760.323 153.413, 762.550 156.283 C 764.778 159.152, 767.694 163.075, 769.031 165 C 772.239 169.619, 787.470 189.289, 792.473 195.274 C 795.070 198.381, 797.207 200, 798.712 200 L 801 200 801 154.500 L 801 109 797.567 109 C 795.164 109, 793.978 109.525, 793.611 110.750 C 793.323 111.713, 793.269 124.482, 793.490 139.126 C 793.712 153.770, 793.560 167, 793.152 168.526 C 792.452 171.142, 791.468 170.054, 775.955 149.507 C 766.905 137.521, 757.980 125.641, 756.123 123.107 C 747.192 110.924, 744.045 109, 733.050 109 C 725.200 109, 725 109.060, 725 111.421 M 383.773 112.750 C 378.673 118.558, 382.332 127, 389.949 127 C 394.443 127, 395.997 125.452, 396.685 120.289 C 397.409 114.862, 394.248 111, 389.082 111 C 386.742 111, 384.727 111.664, 383.773 112.750 M 262.865 117.278 C 261.409 118.734, 261.074 129.395, 261.825 150.378 L 262 155.257 270.043 154.791 C 279.475 154.245, 282.351 152.632, 285.750 145.980 C 290.265 137.144, 287.849 123.877, 280.812 118.866 C 276.831 116.032, 265.145 114.997, 262.865 117.278 M 430.330 117.132 C 429.627 117.999, 429.226 123.907, 429.235 133.250 L 429.250 148 437.375 147.978 C 449.820 147.944, 456.625 144.065, 457.951 136.247 C 459.350 128.003, 456.137 121.293, 449.418 118.428 C 444.531 116.344, 431.679 115.471, 430.330 117.132 M 553 132.929 C 543.710 134.840, 536.473 141.168, 532.304 151.026 C 529.908 156.692, 529.575 158.748, 529.639 167.500 C 529.705 176.597, 529.987 178.042, 532.765 183.500 C 538.593 194.951, 546.315 200, 558 200 C 566.549 200, 571.003 198.203, 577.188 192.259 C 582.611 187.048, 584.865 180.906, 585.628 169.263 C 586.193 160.644, 585.993 158.490, 584.104 152.811 C 582.871 149.107, 580.373 144.459, 578.335 142.079 C 572.338 135.072, 561.539 131.172, 553 132.929 M 695.500 132.767 C 688.614 133.488, 681.070 138.030, 678.499 143.002 C 676.414 147.034, 676.539 156.890, 678.715 160.027 C 681.905 164.627, 683.478 165.747, 694.711 171.422 C 709.476 178.880, 712.960 183.446, 707.972 188.799 C 705.385 191.577, 702.161 192.366, 695.871 191.762 C 689.878 191.186, 686.400 188.814, 682.984 182.972 C 679.847 177.609, 678.322 177.030, 676.925 180.669 C 674.506 186.971, 678.361 194.897, 685.401 198.095 C 691.686 200.949, 706.753 200.759, 712.808 197.750 C 719.221 194.563, 723 189.027, 723 182.818 C 723 177.366, 721.170 172.170, 718.207 169.207 C 717.124 168.124, 711.797 164.886, 706.369 162.011 C 692.732 154.788, 690 152.600, 690 148.904 C 690 147.017, 690.956 144.953, 692.585 143.324 C 694.950 140.959, 695.696 140.782, 701.389 141.239 C 708.920 141.844, 711.349 143.231, 713.594 148.209 C 715.991 153.525, 717.850 154.925, 719.506 152.661 C 721.234 150.298, 720.274 143.299, 717.723 139.657 C 714.406 134.922, 704.436 131.830, 695.500 132.767 M 374.683 134.551 C 372.397 135.836, 372.091 136.404, 373.059 137.571 C 373.715 138.361, 375.657 139.372, 377.376 139.817 C 379.094 140.262, 380.992 141.610, 381.592 142.813 C 382.248 144.127, 382.926 155.630, 383.289 171.613 C 383.621 186.250, 384.137 198.470, 384.434 198.768 C 385.378 199.712, 396.394 198.980, 397.043 197.930 C 398.207 196.047, 397.010 141.660, 395.750 139.165 C 394.118 135.934, 390.409 134.244, 383.436 133.555 C 379.013 133.118, 376.782 133.372, 374.683 134.551 M 482.250 134.220 C 478.964 135.805, 479.490 137.745, 483.750 139.747 C 487.375 141.451, 487.524 141.727, 488.205 148.005 C 488.592 151.577, 488.885 164.318, 488.856 176.317 C 488.826 188.317, 488.959 198.290, 489.151 198.479 C 489.525 198.848, 497.040 199.246, 500.750 199.093 L 503 199 503.006 176.750 C 503.012 152.800, 503.689 148.089, 507.483 145.603 C 510.574 143.578, 517.208 143.539, 521.047 145.525 C 523.702 146.897, 524.236 146.891, 526.414 145.465 C 530.957 142.488, 530.669 140.417, 525 135.314 C 520.516 131.277, 509.720 132.539, 503.721 137.802 C 502.094 139.229, 501.816 139.183, 500.473 137.264 C 499.569 135.974, 497.059 134.749, 493.952 134.083 C 487.818 132.768, 485.199 132.798, 482.250 134.220 M 584.667 133.667 C 583.132 135.201, 584.229 137.647, 587.429 139.826 C 591.083 142.314, 594.116 149.029, 602.868 174 C 610.145 194.764, 612.302 199.468, 614.706 199.812 C 616.929 200.130, 619.211 196.977, 621.040 191.058 C 623.313 183.706, 630.140 165.460, 630.903 164.697 C 631.411 164.189, 632.308 165.443, 633.022 167.658 C 635.346 174.872, 642.087 192.250, 644.066 196.129 C 645.152 198.258, 646.670 200, 647.439 200 C 649.577 200, 652.422 194.516, 655.997 183.500 C 657.782 178, 659.796 172.150, 660.472 170.500 C 661.149 168.850, 664.069 160.357, 666.961 151.627 C 672.374 135.284, 672.448 134.031, 668 134.031 C 664.925 134.031, 663.872 136.004, 658.109 152.557 C 649.804 176.413, 650.509 174.825, 649.261 172.463 C 648.690 171.383, 645.882 164.200, 643.021 156.500 C 640.160 148.800, 637.151 141.451, 636.333 140.169 C 632.864 134.726, 616 130.341, 616 134.881 C 616 135.916, 617.518 137.920, 619.373 139.335 C 621.228 140.750, 623.663 143.763, 624.785 146.031 L 626.825 150.154 622.881 161.327 C 620.712 167.472, 618.684 173.175, 618.374 174 C 617.851 175.390, 613.877 165.531, 608.901 150.500 C 605.985 141.690, 602.666 137.215, 597.364 134.942 C 592.929 133.041, 585.990 132.344, 584.667 133.667 M 552.831 142.918 C 548.403 146.401, 544.910 154.974, 544.422 163.554 C 544.180 167.819, 544.407 172.701, 544.926 174.404 C 545.446 176.107, 546.368 179.412, 546.975 181.748 C 548.302 186.853, 550.722 189.301, 556.010 190.885 C 561.223 192.447, 564.664 190.712, 567.982 184.848 C 570.051 181.191, 570.506 178.850, 570.840 170.117 C 571.379 156.011, 568.975 147.345, 563.632 144.137 C 558.605 141.119, 555.556 140.775, 552.831 142.918 M 429.654 159.750 C 429.227 162.077, 429.390 187.766, 429.848 190.361 C 429.932 190.834, 434.837 191.055, 440.750 190.851 C 453.107 190.426, 457.294 188.738, 460.313 182.966 C 462.729 178.347, 462.175 166.974, 459.382 163.833 C 455.477 159.441, 448.184 157.020, 438.829 157.010 L 430.159 157 429.654 159.750 M 397.333 223 C 337.841 223.275, 288.839 223.827, 288.440 224.226 C 288.041 224.626, 288.566 225.301, 289.607 225.726 C 292.513 226.914, 848.900 226.698, 852.500 225.509 C 855.002 224.682, 853.755 224.425, 845 223.962 C 822.968 222.798, 562.239 222.238, 397.333 223 M 243.667 248.667 C 242.505 249.829, 242.947 252, 244.345 252 C 245.085 252, 246.425 252.813, 247.324 253.806 C 248.707 255.333, 249 258.834, 249.229 276.556 L 249.500 297.500 266 297.500 C 282.049 297.500, 282.508 297.442, 282.802 295.380 C 283.198 292.608, 280.827 292.021, 271.979 292.698 C 268.161 292.990, 263.454 292.933, 261.519 292.569 L 258 291.909 258 274.080 C 258 253.044, 257.645 250.615, 254.351 249.114 C 251.675 247.895, 244.729 247.604, 243.667 248.667 M 288.750 248.570 C 287.558 249.783, 287.880 251.999, 289.250 252.015 C 293.115 252.063, 293.489 253.538, 294 270.791 C 294.487 287.207, 294.572 287.754, 297.194 291.189 C 300.891 296.035, 305.747 298.125, 313.303 298.125 C 322.544 298.125, 327.103 295.721, 330.610 289 C 332.177 285.997, 332.441 282.944, 332.468 267.500 L 332.500 249.500 329.750 249.184 L 327 248.867 327 265.413 C 327 283.952, 325.981 288.399, 321.066 291.302 C 317.476 293.423, 311.152 293.495, 308.230 291.449 C 304.086 288.546, 303.531 286.137, 303.006 268.783 C 302.587 254.935, 302.213 251.780, 300.825 250.394 C 299.059 248.631, 290.030 247.267, 288.750 248.570 M 344.667 248.667 C 343.228 250.105, 344.144 251.698, 347.265 253.187 C 349.441 254.224, 352.623 257.816, 356.805 263.953 L 363.080 273.162 354.433 284.674 C 348.481 292.598, 346.109 296.509, 346.820 297.220 C 348.827 299.227, 352.641 297.039, 356.307 291.777 C 358.329 288.875, 361.487 284.735, 363.325 282.577 L 366.667 278.654 371.584 285.972 C 377.637 294.982, 380.086 296.868, 386.764 297.658 C 391.451 298.214, 391.999 298.081, 391.994 296.389 C 391.990 295.350, 390.696 293.766, 389.118 292.868 C 386.687 291.485, 373 272.469, 373 270.474 C 373 270.106, 376.168 265.789, 380.040 260.881 C 388.114 250.644, 388.722 249.491, 386.485 248.633 C 383.881 247.633, 381.649 249.430, 375.473 257.493 C 372.285 261.654, 369.337 264.933, 368.921 264.780 C 368.505 264.626, 366.180 261.575, 363.755 258 C 361.128 254.129, 357.960 250.793, 355.922 249.752 C 352.530 248.018, 345.949 247.384, 344.667 248.667 M 399.667 248.667 C 398.318 250.016, 399.065 251.709, 401.500 252.818 L 404 253.957 404 268.543 C 404 281.232, 404.278 283.776, 406.140 288.105 C 409.175 295.159, 414.486 298.176, 423.867 298.176 C 431.064 298.176, 435.069 296.791, 438.347 293.169 C 442.072 289.053, 442.910 284.174, 442.956 266.357 C 442.995 251.252, 442.802 249.138, 441.333 248.574 C 438.057 247.317, 437.506 249.855, 437 268.525 C 436.503 286.856, 436.485 286.972, 433.839 289.617 C 431.894 291.561, 429.848 292.404, 426.235 292.751 C 415.866 293.748, 413.828 290.088, 413.289 269.500 C 412.811 251.248, 412.697 250.638, 409.477 249.171 C 406.685 247.900, 400.740 247.594, 399.667 248.667 M 456.087 249.396 C 454.912 250.811, 455.136 251.151, 457.872 252.105 L 461 253.196 461.074 270.848 C 461.115 280.557, 461.452 290.525, 461.824 293 C 462.424 296.995, 462.816 297.536, 465.310 297.822 C 470.236 298.387, 471 296.782, 471 285.878 C 471 277.632, 471.256 276, 472.547 276 C 473.397 276, 474.860 277.389, 475.797 279.087 C 479.871 286.469, 485.122 293.951, 487.596 295.896 C 491.203 298.734, 500 298.939, 500 296.185 C 500 295.100, 498.609 293.707, 496.538 292.719 C 494.294 291.649, 492.313 289.561, 490.907 286.784 C 489.715 284.428, 487.898 281.306, 486.869 279.846 C 484.311 276.213, 484.479 275.485, 488.436 273.039 C 496.776 267.885, 495.708 254.181, 486.673 250.417 C 480.546 247.863, 457.983 247.110, 456.087 249.396 M 502.500 249 C 501.626 250.414, 502.805 251.976, 505.528 253.011 C 508.060 253.973, 513.340 260.743, 519.559 271 C 523.292 277.157, 523.526 278.028, 524 287.500 L 524.500 297.500 528.500 297.500 L 532.500 297.500 533 286.454 C 533.433 276.878, 533.807 275.015, 535.809 272.454 C 541.498 265.174, 550.191 249.791, 549.184 248.784 C 546.634 246.234, 543.459 249.026, 537.500 259.056 C 534.200 264.611, 531.050 269.212, 530.500 269.280 C 529.950 269.349, 527.632 266.584, 525.348 263.136 C 519.026 253.588, 516.818 250.957, 513.835 249.414 C 510.687 247.787, 503.414 247.521, 502.500 249 M 585.750 248.553 C 584.403 249.955, 584.952 250.924, 587.981 252.490 L 590.961 254.031 591.231 275.766 L 591.500 297.500 604 297.460 C 614.059 297.427, 617.242 297.059, 620.300 295.572 C 624.447 293.556, 628 287.943, 628 283.408 C 628 280.813, 624.515 274.016, 623.168 273.985 C 622.801 273.976, 621.864 273.567, 621.086 273.074 C 619.930 272.342, 620.158 271.601, 622.336 269.013 C 625.484 265.271, 625.914 259.356, 623.352 255.019 C 620.448 250.103, 616.013 248.790, 600.500 248.255 C 592.800 247.989, 586.163 248.123, 585.750 248.553 M 638.731 248.602 C 637.260 250.073, 638.062 251.799, 640.500 252.411 L 643 253.038 643 274.319 C 643 289.538, 643.342 295.942, 644.200 296.800 C 645.444 298.044, 667.424 298.530, 671.611 297.406 C 673.968 296.773, 678 290.331, 678 287.197 C 678 283.757, 675.663 284.144, 672 288.192 C 668.564 291.988, 668.366 292.060, 661.194 292.140 C 657.176 292.185, 653.661 291.994, 653.383 291.716 C 653.105 291.438, 652.793 287.676, 652.689 283.356 L 652.500 275.500 661.500 275 C 670.300 274.511, 670.500 274.444, 670.500 272 C 670.500 269.548, 670.333 269.494, 661.854 269.213 L 653.209 268.925 652.577 265.559 C 652.230 263.708, 652.240 260.349, 652.601 258.096 L 653.256 254 660.194 254 C 668.210 254, 670.515 254.932, 671.421 258.540 C 671.861 260.295, 672.626 261.019, 673.786 260.779 C 675.131 260.502, 675.456 259.482, 675.294 256.042 C 674.955 248.848, 674.198 248.544, 655.698 248.186 C 646.768 248.013, 639.133 248.200, 638.731 248.602 M 704.443 255.555 C 702.549 259.711, 701 263.348, 701 263.638 C 701 263.928, 699.623 267.390, 697.939 271.332 C 696.255 275.275, 693.749 281.200, 692.369 284.500 C 690.989 287.800, 689.382 291.482, 688.797 292.683 C 688.213 293.883, 688.018 295.604, 688.364 296.506 C 689.609 299.751, 692.502 297.497, 695.750 290.750 L 699.001 284 707.927 284 L 716.853 284 719.289 289.321 C 722.036 295.319, 726.675 298.353, 732.272 297.811 C 736.277 297.423, 737.034 294.792, 733.592 293.224 C 730.276 291.713, 728.581 288.938, 723.864 277.301 C 721.680 271.910, 719.277 266.150, 718.524 264.500 C 717.772 262.850, 716.184 259.026, 714.995 256.002 C 710.867 245.500, 709.060 245.424, 704.443 255.555 M 740.667 248.667 C 739.256 250.077, 740.104 251.809, 742.500 252.411 C 744.999 253.038, 745 253.044, 745.060 265.769 C 745.155 286.177, 746.485 290.642, 753.990 295.750 C 756.683 297.583, 758.668 298, 764.698 298 C 773.324 298, 776.674 296.604, 780.698 291.332 L 783.500 287.661 783.830 268.689 C 784.167 249.311, 783.826 247.362, 780.341 248.700 C 779.310 249.095, 779 252.392, 779 262.970 C 779 279.744, 777.845 286.610, 774.454 289.999 C 772.319 292.131, 771.051 292.495, 765.857 292.463 C 760.791 292.432, 759.459 292.051, 757.962 290.201 C 755.198 286.788, 754 279.155, 754 264.951 C 754 253.333, 753.794 251.794, 752 250 C 750.028 248.028, 742.223 247.110, 740.667 248.667 M 801.323 248.696 C 800.125 248.929, 798.682 249.678, 798.116 250.360 C 796.619 252.164, 795.775 259.267, 796.864 260.896 C 798.106 262.751, 801 261.555, 801 259.186 C 801 256.162, 804.256 254, 808.809 254 L 812.961 254 813.230 275.750 L 813.500 297.500 817.500 297.500 L 821.500 297.500 821.770 275.750 L 822.039 254 827.770 253.848 C 830.921 253.764, 833.950 253.591, 834.500 253.463 C 835.050 253.335, 836.063 253.179, 836.750 253.115 C 838.946 252.913, 838.134 249.269, 835.750 248.630 C 833.271 247.966, 804.794 248.020, 801.323 248.696 M 844.473 249.044 C 843.682 250.323, 845.762 253, 847.546 253 C 849.154 253, 851.356 255.803, 859.527 268.250 L 865.928 278 866.214 287.750 L 866.500 297.500 869.895 297.824 C 871.937 298.019, 873.625 297.621, 874.130 296.824 C 874.592 296.096, 874.976 291.294, 874.985 286.154 C 875.001 276.037, 874.562 277.162, 884.548 261.676 C 889.738 253.627, 891.377 249.977, 890.291 248.891 C 887.620 246.220, 884.450 249.525, 876.596 263.165 C 872.482 270.310, 871.750 270.575, 868.933 265.942 C 863.244 256.590, 857.844 250.141, 854.816 249.086 C 850.862 247.707, 845.313 247.685, 844.473 249.044 M 472.250 253.662 C 471.389 254.010, 471 256.786, 471 262.583 L 471 271 474.250 270.996 C 481.990 270.987, 486.786 264.355, 483.562 258.120 C 481.735 254.586, 475.778 252.239, 472.250 253.662 M 601.250 253.639 C 600.410 253.994, 600 256.598, 600 261.583 L 600 269 605.545 269 C 610.100 269, 611.530 268.561, 613.545 266.545 C 614.895 265.195, 616 262.925, 616 261.500 C 616 258.298, 611.883 254.005, 608.795 253.986 C 607.533 253.979, 605.600 253.779, 604.500 253.542 C 603.400 253.305, 601.938 253.349, 601.250 253.639 M 704.960 268.750 C 703.711 271.913, 702.308 274.928, 701.844 275.450 C 699.552 278.030, 701.097 279, 707.500 279 C 711.075 279, 714.006 278.663, 714.014 278.250 C 714.040 276.784, 708.489 263.025, 707.866 263.012 C 707.518 263.006, 706.210 265.587, 704.960 268.750 M 600.667 275.667 C 600.300 276.033, 600 279.828, 600 284.099 C 600 293.039, 600.706 293.721, 608.724 292.519 C 620.143 290.806, 621.462 278.514, 610.500 275.975 C 605.746 274.873, 601.590 274.743, 600.667 275.667" stroke="none" fill="#bc9c64" fill-rule="evenodd"/></svg>